<mxfile host="app.diagrams.net" modified="2022-02-17T15:55:24.176Z" agent="5.0 (Windows NT 10.0; Win64; x64) AppleWebKit/537.36 (KHTML, like Gecko) Chrome/98.0.4758.102 Safari/537.36" etag="8AlQtIBVSrRBrOphCMk-" version="16.5.6" type="github">
  <diagram name="Page-1" id="929967ad-93f9-6ef4-fab6-5d389245f69c">
    <mxGraphModel dx="1038" dy="547" grid="1" gridSize="10" guides="1" tooltips="1" connect="1" arrows="1" fold="1" page="1" pageScale="1.5" pageWidth="1169" pageHeight="826" background="none" math="0" shadow="0">
      <root>
        <mxCell id="0" style=";html=1;" />
        <mxCell id="1" style=";html=1;" parent="0" />
        <mxCell id="5Co2nC2he4PfOPCk9Vea-6" value="" style="rounded=0;orthogonalLoop=1;jettySize=auto;html=1;" edge="1" parent="1" source="5Co2nC2he4PfOPCk9Vea-2" target="5Co2nC2he4PfOPCk9Vea-5">
          <mxGeometry relative="1" as="geometry" />
        </mxCell>
        <mxCell id="5Co2nC2he4PfOPCk9Vea-11" style="edgeStyle=none;rounded=0;orthogonalLoop=1;jettySize=auto;html=1;entryX=0;entryY=0;entryDx=40;entryDy=0;entryPerimeter=0;fontSize=16;" edge="1" parent="1" source="5Co2nC2he4PfOPCk9Vea-2" target="5Co2nC2he4PfOPCk9Vea-9">
          <mxGeometry relative="1" as="geometry" />
        </mxCell>
        <mxCell id="5Co2nC2he4PfOPCk9Vea-13" style="edgeStyle=none;rounded=0;orthogonalLoop=1;jettySize=auto;html=1;entryX=0;entryY=0;entryDx=80;entryDy=0;entryPerimeter=0;fontSize=16;" edge="1" parent="1" source="5Co2nC2he4PfOPCk9Vea-2" target="5Co2nC2he4PfOPCk9Vea-8">
          <mxGeometry relative="1" as="geometry" />
        </mxCell>
        <mxCell id="5Co2nC2he4PfOPCk9Vea-2" value="&lt;span style=&quot;font-weight: 700 ; font-size: 12pt&quot;&gt;门户&lt;/span&gt;&lt;span style=&quot;font-weight: 700 ; font-size: 12pt&quot;&gt;及&lt;/span&gt;&lt;span style=&quot;font-weight: 700 ; font-size: 12pt&quot;&gt;门户&lt;br&gt;个人&lt;/span&gt;&lt;span style=&quot;font-weight: 700 ; font-size: 12pt&quot;&gt;信息&lt;/span&gt;&lt;span style=&quot;font-weight: 700 ; font-size: 10.5pt&quot;&gt;管理&lt;/span&gt;" style="shape=folder;tabWidth=80;tabHeight=20;tabPosition=left;strokeWidth=2;html=1;whiteSpace=wrap;align=center;" vertex="1" parent="1">
          <mxGeometry x="360" y="360" width="160" height="90" as="geometry" />
        </mxCell>
        <mxCell id="5Co2nC2he4PfOPCk9Vea-5" value="&lt;p class=&quot;MsoNormal&quot; style=&quot;font-size: 16px;&quot;&gt;&lt;span style=&quot;font-size: 16px;&quot;&gt;门户&lt;/span&gt;&lt;span style=&quot;font-size: 16px;&quot;&gt;注册登录&lt;/span&gt;&lt;/p&gt;" style="shape=folder;tabWidth=80;tabHeight=20;tabPosition=left;strokeWidth=2;html=1;whiteSpace=wrap;align=center;fontSize=16;" vertex="1" parent="1">
          <mxGeometry x="110" y="530" width="150" height="95" as="geometry" />
        </mxCell>
        <mxCell id="5Co2nC2he4PfOPCk9Vea-8" value="&lt;p class=&quot;MsoNormal&quot; style=&quot;font-size: 16px;&quot;&gt;个人信息认证&lt;/p&gt;" style="shape=folder;tabWidth=80;tabHeight=20;tabPosition=left;strokeWidth=2;html=1;whiteSpace=wrap;align=center;fontSize=16;" vertex="1" parent="1">
          <mxGeometry x="360" y="530" width="150" height="95" as="geometry" />
        </mxCell>
        <mxCell id="5Co2nC2he4PfOPCk9Vea-9" value="&lt;p class=&quot;MsoNormal&quot; style=&quot;font-size: 16px;&quot;&gt;个人信息管理&lt;/p&gt;" style="shape=folder;tabWidth=80;tabHeight=20;tabPosition=left;strokeWidth=2;html=1;whiteSpace=wrap;align=center;fontSize=16;" vertex="1" parent="1">
          <mxGeometry x="620" y="530" width="150" height="95" as="geometry" />
        </mxCell>
      </root>
    </mxGraphModel>
  </diagram>
</mxfile>
